<svg xmlns="http://www.w3.org/2000/svg" version="1.1" xmlns:xlink="http://www.w3.org/1999/xlink" width="500" height="542"><svg width="500" height="542" viewBox="0 0 500 542" fill="none" xmlns="http://www.w3.org/2000/svg">
<path fill-rule="evenodd" clip-rule="evenodd" d="M0 57.4899C0 20.7053 34.0299 -6.61095 69.8782 1.40395L305.602 54.1108C338.25 59.6355 385.752 76.5516 425.741 110.175C466.795 144.693 500 197.044 500 271.001V271.179L499.978 274.24L499.976 274.322V274.404C498.963 347.195 465.598 398.68 424.785 432.625C385.004 465.71 338.003 482.404 305.602 487.887L69.8782 540.596C34.5916 548.485 1.06387 522.143 0.0240138 486.23L0 484.512V57.4899Z" fill="#10213D"></path>
<path d="M276.254 442.959C276.251 458.308 265.6 471.601 250.621 474.95L64.5208 516.562C44.0369 521.142 24.5904 505.535 24.5898 484.515V57.4924C24.5898 36.4717 44.0366 20.8628 64.5208 25.443L250.679 67.0678C265.662 70.418 276.314 83.717 276.312 99.0701L276.254 442.959Z" fill="white"></path>
<rect width="31.9861" height="31.9861" rx="6.14754" transform="matrix(-1 0 0 1 253.287 254.512)" fill="#10213D"></rect>
<path d="M475.821 273.79C474.247 386.923 385.474 440.229 324.726 458.018C312.59 461.572 301.23 451.963 301.23 439.317V102.142C301.23 89.4953 312.586 79.8858 324.723 83.4397C386.016 101.387 475.843 155.493 475.843 270.729L475.821 273.79Z" fill="url(#paint0_linear_3106_10102)"></path>
<path d="M335.988 434.831C338.252 434.831 340.087 436.668 340.087 438.935V447.145C340.087 449.412 338.252 451.249 335.988 451.249H327.792C325.528 451.249 323.693 449.412 323.693 447.145V438.935C323.693 436.668 325.528 434.831 327.792 434.831H335.988Z" fill="white"></path>
<path d="M307.3 434.831C309.563 434.831 311.398 436.668 311.398 438.935V447.145C311.398 449.412 309.563 451.249 307.3 451.249H305.117C302.691 447.96 301.23 443.82 301.23 439.286V434.831H307.3Z" fill="white"></path>
<path d="M364.677 434.831C366.94 434.831 368.775 436.668 368.775 438.935V440.28C363.307 443.118 357.852 445.687 352.472 448C352.414 447.724 352.382 447.438 352.382 447.145V438.935C352.382 436.668 354.217 434.831 356.48 434.831H364.677Z" fill="white"></path>
<path d="M335.988 406.098C338.252 406.098 340.087 407.936 340.087 410.203V418.412C340.087 420.679 338.252 422.517 335.988 422.517H327.792C325.528 422.517 323.693 420.679 323.693 418.412V410.203C323.693 407.936 325.528 406.098 327.792 406.098H335.988Z" fill="white"></path>
<path d="M364.677 406.098C366.94 406.098 368.775 407.936 368.775 410.203V418.412C368.775 420.679 366.94 422.517 364.677 422.517H356.48C354.217 422.517 352.382 420.679 352.382 418.412V410.203C352.382 407.936 354.217 406.098 356.48 406.098H364.677Z" fill="white"></path>
<path d="M393.366 406.098C395.629 406.098 397.464 407.936 397.464 410.203V418.412C397.464 420.679 395.629 422.517 393.366 422.517H385.169C382.905 422.517 381.07 420.679 381.07 418.412V410.203C381.07 407.936 382.905 406.098 385.169 406.098H393.366Z" fill="white"></path>
<path d="M307.3 406.098C309.563 406.098 311.398 407.936 311.398 410.203V418.412C311.398 420.679 309.563 422.517 307.3 422.517H301.23V406.098H307.3Z" fill="white"></path>
<path d="M417.83 406.098C415.186 408.551 412.492 410.917 409.759 413.197V410.203C409.759 407.936 411.594 406.098 413.857 406.098H417.83Z" fill="white"></path>
<path d="M335.988 377.366C338.252 377.366 340.087 379.204 340.087 381.47V389.68C340.087 391.947 338.252 393.784 335.988 393.784H327.792C325.528 393.784 323.693 391.947 323.693 389.68V381.47C323.693 379.204 325.528 377.366 327.792 377.366H335.988Z" fill="white"></path>
<path d="M364.677 377.366C366.94 377.366 368.775 379.204 368.775 381.47V389.68C368.775 391.947 366.94 393.784 364.677 393.784H356.48C354.217 393.784 352.382 391.947 352.382 389.68V381.47C352.382 379.204 354.217 377.366 356.48 377.366H364.677Z" fill="white"></path>
<path d="M393.366 377.366C395.629 377.366 397.464 379.204 397.464 381.47V389.68C397.464 391.947 395.629 393.784 393.366 393.784H385.169C382.905 393.784 381.07 391.947 381.07 389.68V381.47C381.07 379.204 382.905 377.366 385.169 377.366H393.366Z" fill="white"></path>
<path d="M422.054 377.366C424.318 377.366 426.152 379.204 426.152 381.47V389.68C426.152 391.947 424.318 393.784 422.054 393.784H413.857C411.594 393.784 409.759 391.947 409.759 389.68V381.47C409.759 379.204 411.594 377.366 413.857 377.366H422.054Z" fill="white"></path>
<path d="M307.3 377.366C309.563 377.366 311.398 379.204 311.398 381.47V389.68C311.398 391.947 309.563 393.784 307.3 393.784H301.23V377.366H307.3Z" fill="white"></path>
<path d="M443.154 377.366C441.624 379.518 440.054 381.626 438.448 383.687V381.47C438.448 379.204 440.282 377.366 442.546 377.366H443.154Z" fill="white"></path>
<path d="M335.988 348.633C338.252 348.633 340.087 350.471 340.087 352.738V360.947C340.087 363.214 338.252 365.052 335.988 365.052H327.792C325.528 365.052 323.693 363.214 323.693 360.947V352.738C323.693 350.471 325.528 348.633 327.792 348.633H335.988Z" fill="white"></path>
<path d="M364.677 348.633C366.94 348.633 368.775 350.471 368.775 352.738V360.947C368.775 363.214 366.94 365.052 364.677 365.052H356.48C354.217 365.052 352.382 363.214 352.382 360.947V352.738C352.382 350.471 354.217 348.633 356.48 348.633H364.677Z" fill="white"></path>
<path d="M393.366 348.633C395.629 348.633 397.464 350.471 397.464 352.738V360.947C397.464 363.214 395.629 365.052 393.366 365.052H385.169C382.905 365.052 381.07 363.214 381.07 360.947V352.738C381.07 350.471 382.905 348.633 385.169 348.633H393.366Z" fill="white"></path>
<path d="M422.054 348.633C424.318 348.633 426.152 350.471 426.152 352.738V360.947C426.152 363.214 424.318 365.052 422.054 365.052H413.857C411.594 365.052 409.759 363.214 409.759 360.947V352.738C409.759 350.471 411.594 348.633 413.857 348.633H422.054Z" fill="white"></path>
<path d="M450.743 348.633C453.006 348.633 454.841 350.471 454.841 352.738V358.498C453.657 360.715 452.434 362.892 451.171 365.028C451.03 365.043 450.887 365.052 450.743 365.052H442.546C440.282 365.052 438.448 363.214 438.448 360.947V352.738C438.448 350.471 440.282 348.633 442.546 348.633H450.743Z" fill="white"></path>
<path d="M307.3 348.633C309.563 348.633 311.398 350.471 311.398 352.738V360.947C311.398 363.214 309.563 365.052 307.3 365.052H301.23V348.633H307.3Z" fill="white"></path>
<path d="M335.988 319.901C338.252 319.901 340.087 321.739 340.087 324.006V332.215C340.087 334.482 338.252 336.32 335.988 336.32H327.792C325.528 336.32 323.693 334.482 323.693 332.215V324.006C323.693 321.739 325.528 319.901 327.792 319.901H335.988Z" fill="white"></path>
<path d="M364.677 319.901C366.94 319.901 368.775 321.739 368.775 324.006V332.215C368.775 334.482 366.94 336.32 364.677 336.32H356.48C354.217 336.32 352.382 334.482 352.382 332.215V324.006C352.382 321.739 354.217 319.901 356.48 319.901H364.677Z" fill="white"></path>
<path d="M393.366 319.901C395.629 319.901 397.464 321.739 397.464 324.006V332.215C397.464 334.482 395.629 336.32 393.366 336.32H385.169C382.905 336.32 381.07 334.482 381.07 332.215V324.006C381.07 321.739 382.905 319.901 385.169 319.901H393.366Z" fill="white"></path>
<path d="M422.054 319.901C424.318 319.901 426.152 321.739 426.152 324.006V332.215C426.152 334.482 424.318 336.32 422.054 336.32H413.857C411.594 336.32 409.759 334.482 409.759 332.215V324.006C409.759 321.739 411.594 319.901 413.857 319.901H422.054Z" fill="white"></path>
<path d="M450.743 319.901C453.006 319.901 454.841 321.739 454.841 324.006V332.215C454.841 334.482 453.006 336.32 450.743 336.32H442.546C440.282 336.32 438.448 334.482 438.448 332.215V324.006C438.448 321.739 440.282 319.901 442.546 319.901H450.743Z" fill="white"></path>
<path d="M307.3 319.901C309.563 319.901 311.398 321.739 311.398 324.006V332.215C311.398 334.482 309.563 336.32 307.3 336.32H301.23V319.901H307.3Z" fill="white"></path>
<path d="M469.762 320.178C468.958 323.277 468.082 326.318 467.136 329.301V324.006C467.136 322.259 468.226 320.77 469.762 320.178Z" fill="white"></path>
<path d="M335.988 291.169C338.252 291.169 340.087 293.006 340.087 295.273V303.482C340.087 305.749 338.252 307.587 335.988 307.587H327.792C325.528 307.587 323.693 305.749 323.693 303.482V295.273C323.693 293.006 325.528 291.169 327.792 291.169H335.988Z" fill="white"></path>
<path d="M364.677 291.169C366.94 291.169 368.775 293.006 368.775 295.273V303.482C368.775 305.749 366.94 307.587 364.677 307.587H356.48C354.217 307.587 352.382 305.749 352.382 303.482V295.273C352.382 293.006 354.217 291.169 356.48 291.169H364.677Z" fill="white"></path>
<path d="M393.366 291.169C395.629 291.169 397.464 293.006 397.464 295.273V303.482C397.464 305.749 395.629 307.587 393.366 307.587H385.169C382.905 307.587 381.07 305.749 381.07 303.482V295.273C381.07 293.006 382.905 291.169 385.169 291.169H393.366Z" fill="white"></path>
<path d="M422.054 291.169C424.318 291.169 426.152 293.006 426.152 295.273V303.482C426.152 305.749 424.318 307.587 422.054 307.587H413.857C411.594 307.587 409.759 305.749 409.759 303.482V295.273C409.759 293.006 411.594 291.169 413.857 291.169H422.054Z" fill="white"></path>
<path d="M450.743 291.169C453.006 291.169 454.841 293.006 454.841 295.273V303.482C454.841 305.749 453.006 307.587 450.743 307.587H442.546C440.282 307.587 438.448 305.749 438.448 303.482V295.273C438.448 293.006 440.282 291.169 442.546 291.169H450.743Z" fill="white"></path>
<path d="M474.862 291.169C474.312 296.803 473.533 302.274 472.549 307.587H471.234C468.971 307.587 467.136 305.749 467.136 303.482V295.273C467.136 293.006 468.971 291.169 471.234 291.169H474.862Z" fill="white"></path>
<path d="M307.3 291.169C309.563 291.169 311.398 293.006 311.398 295.273V303.482C311.398 305.749 309.563 307.587 307.3 307.587H301.23V291.169H307.3Z" fill="white"></path>
<path d="M335.988 262.436C338.252 262.436 340.087 264.274 340.087 266.541V274.75C340.087 277.017 338.252 278.855 335.988 278.855H327.792C325.528 278.855 323.693 277.017 323.693 274.75V266.541C323.693 264.274 325.528 262.436 327.792 262.436H335.988Z" fill="white"></path>
<path d="M364.677 262.436C366.94 262.436 368.775 264.274 368.775 266.541V274.75C368.775 277.017 366.94 278.855 364.677 278.855H356.48C354.217 278.855 352.382 277.017 352.382 274.75V266.541C352.382 264.274 354.217 262.436 356.48 262.436H364.677Z" fill="white"></path>
<path d="M393.366 262.436C395.629 262.436 397.464 264.274 397.464 266.541V274.75C397.464 277.017 395.629 278.855 393.366 278.855H385.169C382.905 278.855 381.07 277.017 381.07 274.75V266.541C381.07 264.274 382.905 262.436 385.169 262.436H393.366Z" fill="white"></path>
<path d="M422.054 262.436C424.318 262.436 426.152 264.274 426.152 266.541V274.75C426.152 277.017 424.318 278.855 422.054 278.855H413.857C411.594 278.855 409.759 277.017 409.759 274.75V266.541C409.759 264.274 411.594 262.436 413.857 262.436H422.054Z" fill="white"></path>
<path d="M450.743 262.436C453.006 262.436 454.841 264.274 454.841 266.541V274.75C454.841 277.017 453.006 278.855 450.743 278.855H442.546C440.282 278.855 438.448 277.017 438.448 274.75V266.541C438.448 264.274 440.282 262.436 442.546 262.436H450.743Z" fill="white"></path>
<path d="M475.685 262.436C475.789 265.165 475.843 267.929 475.843 270.73L475.821 273.79C475.797 275.492 475.754 277.18 475.691 278.855H471.234C468.971 278.855 467.136 277.017 467.136 274.75V266.541C467.136 264.274 468.971 262.436 471.234 262.436H475.685Z" fill="white"></path>
<path d="M307.3 262.436C309.563 262.436 311.398 264.274 311.398 266.541V274.75C311.398 277.017 309.563 278.855 307.3 278.855H301.23V262.436H307.3Z" fill="white"></path>
<path d="M335.988 233.704C338.252 233.704 340.087 235.541 340.087 237.808V246.018C340.087 248.284 338.252 250.122 335.988 250.122H327.792C325.528 250.122 323.693 248.284 323.693 246.018V237.808C323.693 235.541 325.528 233.704 327.792 233.704H335.988Z" fill="white"></path>
<path d="M364.677 233.704C366.94 233.704 368.775 235.541 368.775 237.808V246.018C368.775 248.284 366.94 250.122 364.677 250.122H356.48C354.217 250.122 352.382 248.284 352.382 246.018V237.808C352.382 235.541 354.217 233.704 356.48 233.704H364.677Z" fill="white"></path>
<path d="M393.366 233.704C395.629 233.704 397.464 235.541 397.464 237.808V246.018C397.464 248.284 395.629 250.122 393.366 250.122H385.169C382.905 250.122 381.07 248.284 381.07 246.018V237.808C381.07 235.541 382.905 233.704 385.169 233.704H393.366Z" fill="white"></path>
<path d="M422.054 233.704C424.318 233.704 426.152 235.541 426.152 237.808V246.018C426.152 248.284 424.318 250.122 422.054 250.122H413.857C411.594 250.122 409.759 248.284 409.759 246.018V237.808C409.759 235.541 411.594 233.704 413.857 233.704H422.054Z" fill="white"></path>
<path d="M450.743 233.704C453.006 233.704 454.841 235.541 454.841 237.808V246.018C454.841 248.284 453.006 250.122 450.743 250.122H442.546C440.282 250.122 438.448 248.284 438.448 246.018V237.808C438.448 235.541 440.282 233.704 442.546 233.704H450.743Z" fill="white"></path>
<path d="M472.521 233.704C473.51 239.016 474.293 244.488 474.848 250.122H471.234C468.971 250.122 467.136 248.284 467.136 246.018V237.808C467.136 235.541 468.971 233.704 471.234 233.704H472.521Z" fill="white"></path>
<path d="M307.3 233.704C309.563 233.704 311.398 235.541 311.398 237.808V246.018C311.398 248.284 309.563 250.122 307.3 250.122H301.23V233.704H307.3Z" fill="white"></path>
<path d="M335.988 204.971C338.252 204.971 340.087 206.809 340.087 209.076V217.285C340.087 219.552 338.252 221.39 335.988 221.39H327.792C325.528 221.39 323.693 219.552 323.693 217.285V209.076C323.693 206.809 325.528 204.971 327.792 204.971H335.988Z" fill="white"></path>
<path d="M364.677 204.971C366.94 204.971 368.775 206.809 368.775 209.076V217.285C368.775 219.552 366.94 221.39 364.677 221.39H356.48C354.217 221.39 352.382 219.552 352.382 217.285V209.076C352.382 206.809 354.217 204.971 356.48 204.971H364.677Z" fill="white"></path>
<path d="M393.366 204.971C395.629 204.971 397.464 206.809 397.464 209.076V217.285C397.464 219.552 395.629 221.39 393.366 221.39H385.169C382.905 221.39 381.07 219.552 381.07 217.285V209.076C381.07 206.809 382.905 204.971 385.169 204.971H393.366Z" fill="white"></path>
<path d="M422.054 204.971C424.318 204.971 426.152 206.809 426.152 209.076V217.285C426.152 219.552 424.318 221.39 422.054 221.39H413.857C411.594 221.39 409.759 219.552 409.759 217.285V209.076C409.759 206.809 411.594 204.971 413.857 204.971H422.054Z" fill="white"></path>
<path d="M450.743 204.971C453.006 204.971 454.841 206.809 454.841 209.076V217.285C454.841 219.552 453.006 221.39 450.743 221.39H442.546C440.282 221.39 438.448 219.552 438.448 217.285V209.076C438.448 206.809 440.282 204.971 442.546 204.971H450.743Z" fill="white"></path>
<path d="M307.3 204.971C309.563 204.971 311.398 206.809 311.398 209.076V217.285C311.398 219.552 309.563 221.39 307.3 221.39H301.23V204.971H307.3Z" fill="white"></path>
<path d="M467.136 212.146C468.064 215.073 468.924 218.056 469.716 221.095C468.205 220.49 467.136 219.014 467.136 217.285V212.146Z" fill="white"></path>
<path d="M335.988 176.239C338.252 176.239 340.087 178.077 340.087 180.343V188.553C340.087 190.82 338.252 192.657 335.988 192.657H327.792C325.528 192.657 323.693 190.82 323.693 188.553V180.343C323.693 178.077 325.528 176.239 327.792 176.239H335.988Z" fill="white"></path>
<path d="M364.677 176.239C366.94 176.239 368.775 178.077 368.775 180.343V188.553C368.775 190.82 366.94 192.657 364.677 192.657H356.48C354.217 192.657 352.382 190.82 352.382 188.553V180.343C352.382 178.077 354.217 176.239 356.48 176.239H364.677Z" fill="white"></path>
<path d="M393.366 176.239C395.629 176.239 397.464 178.077 397.464 180.343V188.553C397.464 190.82 395.629 192.657 393.366 192.657H385.169C382.905 192.657 381.07 190.82 381.07 188.553V180.343C381.07 178.077 382.905 176.239 385.169 176.239H393.366Z" fill="white"></path>
<path d="M422.054 176.239C424.318 176.239 426.152 178.077 426.152 180.343V188.553C426.152 190.82 424.318 192.657 422.054 192.657H413.857C411.594 192.657 409.759 190.82 409.759 188.553V180.343C409.759 178.077 411.594 176.239 413.857 176.239H422.054Z" fill="white"></path>
<path d="M451.069 176.255C452.368 178.446 453.625 180.681 454.841 182.957V188.553C454.841 190.82 453.006 192.657 450.743 192.657H442.546C440.282 192.657 438.448 190.82 438.448 188.553V180.343C438.448 178.077 440.282 176.239 442.546 176.239H450.743C450.852 176.239 450.961 176.246 451.069 176.255Z" fill="white"></path>
<path d="M307.3 176.239C309.563 176.239 311.398 178.077 311.398 180.343V188.553C311.398 190.82 309.563 192.657 307.3 192.657H301.23V176.239H307.3Z" fill="white"></path>
<path d="M335.988 147.506C338.252 147.506 340.087 149.344 340.087 151.611V159.82C340.087 162.087 338.252 163.925 335.988 163.925H327.792C325.528 163.925 323.693 162.087 323.693 159.82V151.611C323.693 149.344 325.528 147.506 327.792 147.506H335.988Z" fill="white"></path>
<path d="M364.677 147.506C366.94 147.506 368.775 149.344 368.775 151.611V159.82C368.775 162.087 366.94 163.925 364.677 163.925H356.48C354.217 163.925 352.382 162.087 352.382 159.82V151.611C352.382 149.344 354.217 147.506 356.48 147.506H364.677Z" fill="white"></path>
<path d="M393.366 147.506C395.629 147.506 397.464 149.344 397.464 151.611V159.82C397.464 162.087 395.629 163.925 393.366 163.925H385.169C382.905 163.925 381.07 162.087 381.07 159.82V151.611C381.07 149.344 382.905 147.506 385.169 147.506H393.366Z" fill="white"></path>
<path d="M422.054 147.506C424.318 147.506 426.152 149.344 426.152 151.611V159.82C426.152 162.087 424.318 163.925 422.054 163.925H413.857C411.594 163.925 409.759 162.087 409.759 159.82V151.611C409.759 149.344 411.594 147.506 413.857 147.506H422.054Z" fill="white"></path>
<path d="M438.448 157.772C440.012 159.78 441.543 161.83 443.036 163.925H442.546C440.282 163.925 438.448 162.087 438.448 159.82V157.772Z" fill="white"></path>
<path d="M307.3 147.506C309.563 147.506 311.398 149.344 311.398 151.611V159.82C311.398 162.087 309.563 163.925 307.3 163.925H301.23V147.506H307.3Z" fill="white"></path>
<path d="M335.988 118.774C338.252 118.774 340.087 120.612 340.087 122.879V131.088C340.087 133.355 338.252 135.192 335.988 135.192H327.792C325.528 135.192 323.693 133.355 323.693 131.088V122.879C323.693 120.612 325.528 118.774 327.792 118.774H335.988Z" fill="white"></path>
<path d="M364.677 118.774C366.94 118.774 368.775 120.612 368.775 122.879V131.088C368.775 133.355 366.94 135.192 364.677 135.192H356.48C354.217 135.192 352.382 133.355 352.382 131.088V122.879C352.382 120.612 354.217 118.774 356.48 118.774H364.677Z" fill="white"></path>
<path d="M393.366 118.774C395.629 118.774 397.464 120.612 397.464 122.879V131.088C397.464 133.355 395.629 135.192 393.366 135.192H385.169C382.905 135.192 381.07 133.355 381.07 131.088V122.879C381.07 120.612 382.905 118.774 385.169 118.774H393.366Z" fill="white"></path>
<path d="M409.759 128.26C412.43 130.489 415.064 132.799 417.65 135.192H413.857C411.594 135.192 409.759 133.355 409.759 131.088V128.26Z" fill="white"></path>
<path d="M307.3 118.774C309.563 118.774 311.398 120.612 311.398 122.879V131.088C311.398 133.355 309.563 135.192 307.3 135.192H301.23V118.774H307.3Z" fill="white"></path>
<path d="M335.988 90.0415C338.252 90.0415 340.087 91.8792 340.087 94.1461V102.355C340.087 104.622 338.252 106.46 335.988 106.46H327.792C325.528 106.46 323.693 104.622 323.693 102.355V94.1461C323.693 91.8792 325.528 90.0415 327.792 90.0415H335.988Z" fill="white"></path>
<path d="M352.446 93.4427C357.835 95.7587 363.298 98.3343 368.775 101.177V102.355C368.775 104.622 366.94 106.46 364.677 106.46H356.48C354.217 106.46 352.382 104.622 352.382 102.355V94.1461C352.382 93.906 352.406 93.6714 352.446 93.4427Z" fill="white"></path>
<path d="M307.3 90.0415C309.563 90.0415 311.398 91.8792 311.398 94.1461V102.355C311.398 104.622 309.563 106.46 307.3 106.46H301.23V102.173C301.23 97.5614 302.742 93.3573 305.243 90.0415H307.3Z" fill="white"></path>
<defs>
<linearGradient id="SvgjsLinearGradient1013" x1="301.23" y1="78" x2="503.288" y2="402.091" gradientUnits="userSpaceOnUse">
<stop stop-color="#FF20D6"></stop>
<stop offset="0.399038" stop-color="#FFE500"></stop>
<stop offset="0.600962" stop-color="#FFE500"></stop>
<stop offset="1" stop-color="#10D7FF"></stop>
</linearGradient>
</defs>
</svg><style>@media (prefers-color-scheme: light) { :root { filter: none; } }
@media (prefers-color-scheme: dark) { :root { filter: none; } }
</style></svg>