<svg width="450" height="450" viewBox="0 0 450 450" fill="none" xmlns="http://www.w3.org/2000/svg">
<path d="M16 62.5063C16 22.8251 52.4782 -6.72331 91.1773 1.32927L92.0916 1.52652L271.326 41.5403C298.869 46.2863 338.047 60.3227 371.308 88.2458L372.936 89.6284C407.04 118.909 434.602 163.32 434.602 225V225.203L434.601 225.271L434.585 227.6L434.584 227.762L434.581 227.851L434.582 227.852C433.734 288.629 406.006 332.298 372.12 361.068L370.502 362.427C337.428 389.893 298.666 403.744 271.328 408.456L92.0925 448.473C53.9628 456.985 17.7297 428.855 16.0593 390.26L16.0262 389.345L16.0223 389.206L16 387.627V62.5063ZM88.0078 19.8214C60.6833 13.7216 34.7448 34.5109 34.7448 62.5063V387.495L34.7632 388.802C35.5558 416.134 61.1115 436.183 88.0078 430.178L267.682 390.064C292.379 385.892 328.205 373.186 358.526 348.006C389.635 322.172 415.067 282.989 415.839 227.591V227.528L415.84 227.465L415.857 225.136V225C415.857 168.715 390.547 128.872 359.255 102.602C328.774 77.0127 292.567 64.139 267.682 59.9343L88.0078 19.8214Z" fill="white"/>
<path d="M34.7444 62.5054C34.7444 34.5101 60.6831 13.7207 88.0075 19.8204L267.682 59.9331C292.567 64.1378 328.774 77.0114 359.255 102.6C390.547 128.871 415.857 168.714 415.858 224.999V225.135L415.84 227.464L415.839 227.526V227.59C415.066 282.988 389.635 322.171 358.526 348.005C328.205 373.185 292.379 385.891 267.682 390.063L88.0075 430.177C61.1113 436.181 35.5558 416.133 34.7632 388.801L34.7444 387.494V62.5054Z" fill="#10213D"/>
<path d="M53.4875 62.5098C53.4878 46.512 68.3106 34.6324 83.9241 38.1182L225.81 69.7959C237.234 72.3465 245.358 82.4849 245.356 94.1904L245.312 355.836C245.31 367.538 237.187 377.673 225.766 380.223L83.9241 411.89C68.3108 415.375 53.4882 403.497 53.4875 387.5V62.5098ZM208.12 212.444C205.533 212.444 203.435 214.542 203.435 217.13V232.12C203.435 234.708 205.533 236.806 208.12 236.806H223.111C225.698 236.806 227.797 234.708 227.797 232.12V217.13C227.797 214.542 225.698 212.444 223.111 212.444H208.12Z" fill="white"/>
<path d="M397.427 227.123C396.227 313.226 328.559 353.795 282.256 367.333C273.005 370.037 264.35 362.713 264.35 353.076V96.512C264.35 86.8742 273.002 79.5499 282.253 82.2543C328.972 95.9124 397.444 137.09 397.444 224.794L397.427 227.123Z" fill="url(#paint0_linear_3552_287)"/>
<path d="M290.843 349.684C292.568 349.684 293.967 351.083 293.967 352.808V359.056C293.967 360.781 292.568 362.18 290.843 362.18H284.595C282.87 362.18 281.471 360.781 281.471 359.056V352.808C281.471 351.083 282.87 349.684 284.595 349.684H290.843Z" fill="white"/>
<path d="M268.976 349.684C270.701 349.684 272.1 351.083 272.1 352.808V359.056C272.1 360.781 270.701 362.18 268.976 362.18H267.312C265.463 359.677 264.35 356.526 264.35 353.075V349.684H268.976Z" fill="white"/>
<path d="M312.71 349.684C314.435 349.684 315.834 351.083 315.834 352.808V353.832C311.666 355.992 307.508 357.947 303.407 359.707C303.363 359.497 303.339 359.279 303.339 359.056V352.808C303.339 351.083 304.737 349.684 306.462 349.684H312.71Z" fill="white"/>
<path d="M290.843 327.817C292.568 327.817 293.967 329.216 293.967 330.941V337.189C293.967 338.914 292.568 340.313 290.843 340.313H284.595C282.87 340.313 281.471 338.914 281.471 337.189V330.941C281.471 329.216 282.87 327.817 284.595 327.817H290.843Z" fill="white"/>
<path d="M312.71 327.817C314.435 327.817 315.834 329.216 315.834 330.941V337.189C315.834 338.914 314.435 340.313 312.71 340.313H306.462C304.737 340.313 303.339 338.914 303.339 337.189V330.941C303.339 329.216 304.737 327.817 306.462 327.817H312.71Z" fill="white"/>
<path d="M334.577 327.817C336.302 327.817 337.701 329.216 337.701 330.941V337.189C337.701 338.914 336.302 340.313 334.577 340.313H328.329C326.604 340.313 325.206 338.914 325.206 337.189V330.941C325.206 329.216 326.604 327.817 328.329 327.817H334.577Z" fill="white"/>
<path d="M268.976 327.817C270.701 327.817 272.1 329.216 272.1 330.941V337.189C272.1 338.914 270.701 340.313 268.976 340.313H264.35V327.817H268.976Z" fill="white"/>
<path d="M353.224 327.817C351.209 329.684 349.156 331.484 347.073 333.22V330.941C347.073 329.216 348.471 327.817 350.197 327.817H353.224Z" fill="white"/>
<path d="M290.843 305.95C292.568 305.95 293.967 307.349 293.967 309.074V315.322C293.967 317.047 292.568 318.446 290.843 318.446H284.595C282.87 318.446 281.471 317.047 281.471 315.322V309.074C281.471 307.349 282.87 305.95 284.595 305.95H290.843Z" fill="white"/>
<path d="M312.71 305.95C314.435 305.95 315.834 307.349 315.834 309.074V315.322C315.834 317.047 314.435 318.446 312.71 318.446H306.462C304.737 318.446 303.339 317.047 303.339 315.322V309.074C303.339 307.349 304.737 305.95 306.462 305.95H312.71Z" fill="white"/>
<path d="M334.577 305.95C336.302 305.95 337.701 307.349 337.701 309.074V315.322C337.701 317.047 336.302 318.446 334.577 318.446H328.329C326.604 318.446 325.206 317.047 325.206 315.322V309.074C325.206 307.349 326.604 305.95 328.329 305.95H334.577Z" fill="white"/>
<path d="M356.444 305.95C358.17 305.95 359.568 307.349 359.568 309.074V315.322C359.568 317.047 358.17 318.446 356.444 318.446H350.197C348.471 318.446 347.073 317.047 347.073 315.322V309.074C347.073 307.349 348.471 305.95 350.197 305.95H356.444Z" fill="white"/>
<path d="M268.976 305.95C270.701 305.95 272.1 307.349 272.1 309.074V315.322C272.1 317.047 270.701 318.446 268.976 318.446H264.35V305.95H268.976Z" fill="white"/>
<path d="M372.527 305.95C371.361 307.589 370.164 309.192 368.94 310.761V309.074C368.94 307.349 370.338 305.95 372.064 305.95H372.527Z" fill="white"/>
<path d="M290.843 284.083C292.568 284.083 293.967 285.482 293.967 287.207V293.455C293.967 295.18 292.568 296.579 290.843 296.579H284.595C282.87 296.579 281.471 295.18 281.471 293.455V287.207C281.471 285.482 282.87 284.083 284.595 284.083H290.843Z" fill="white"/>
<path d="M312.71 284.083C314.435 284.083 315.834 285.482 315.834 287.207V293.455C315.834 295.18 314.435 296.579 312.71 296.579H306.462C304.737 296.579 303.339 295.18 303.339 293.455V287.207C303.339 285.482 304.737 284.083 306.462 284.083H312.71Z" fill="white"/>
<path d="M334.577 284.083C336.302 284.083 337.701 285.482 337.701 287.207V293.455C337.701 295.18 336.302 296.579 334.577 296.579H328.329C326.604 296.579 325.206 295.18 325.206 293.455V287.207C325.206 285.482 326.604 284.083 328.329 284.083H334.577Z" fill="white"/>
<path d="M356.444 284.083C358.17 284.083 359.568 285.482 359.568 287.207V293.455C359.568 295.18 358.17 296.579 356.444 296.579H350.197C348.471 296.579 347.073 295.18 347.073 293.455V287.207C347.073 285.482 348.471 284.083 350.197 284.083H356.444Z" fill="white"/>
<path d="M378.311 284.083C380.037 284.083 381.435 285.482 381.435 287.207V291.591C380.533 293.278 379.601 294.935 378.638 296.56C378.531 296.572 378.422 296.579 378.311 296.579H372.064C370.338 296.579 368.94 295.18 368.94 293.455V287.207C368.94 285.482 370.338 284.083 372.064 284.083H378.311Z" fill="white"/>
<path d="M268.976 284.083C270.701 284.083 272.1 285.482 272.1 287.207V293.455C272.1 295.18 270.701 296.579 268.976 296.579H264.35V284.083H268.976Z" fill="white"/>
<path d="M290.843 262.216C292.568 262.216 293.967 263.615 293.967 265.34V271.588C293.967 273.313 292.568 274.712 290.843 274.712H284.595C282.87 274.712 281.471 273.313 281.471 271.588V265.34C281.471 263.615 282.87 262.216 284.595 262.216H290.843Z" fill="white"/>
<path d="M312.71 262.216C314.435 262.216 315.834 263.615 315.834 265.34V271.588C315.834 273.313 314.435 274.712 312.71 274.712H306.462C304.737 274.712 303.339 273.313 303.339 271.588V265.34C303.339 263.615 304.737 262.216 306.462 262.216H312.71Z" fill="white"/>
<path d="M334.577 262.216C336.302 262.216 337.701 263.615 337.701 265.34V271.588C337.701 273.313 336.302 274.712 334.577 274.712H328.329C326.604 274.712 325.206 273.313 325.206 271.588V265.34C325.206 263.615 326.604 262.216 328.329 262.216H334.577Z" fill="white"/>
<path d="M356.444 262.216C358.17 262.216 359.568 263.615 359.568 265.34V271.588C359.568 273.313 358.17 274.712 356.444 274.712H350.197C348.471 274.712 347.073 273.313 347.073 271.588V265.34C347.073 263.615 348.471 262.216 350.197 262.216H356.444Z" fill="white"/>
<path d="M378.311 262.216C380.037 262.216 381.435 263.615 381.435 265.34V271.588C381.435 273.313 380.037 274.712 378.311 274.712H372.064C370.338 274.712 368.94 273.313 368.94 271.588V265.34C368.94 263.615 370.338 262.216 372.064 262.216H378.311Z" fill="white"/>
<path d="M268.976 262.216C270.701 262.216 272.1 263.615 272.1 265.34V271.588C272.1 273.313 270.701 274.712 268.976 274.712H264.35V262.216H268.976Z" fill="white"/>
<path d="M392.808 262.427C392.196 264.785 391.528 267.1 390.807 269.37V265.34C390.807 264.011 391.638 262.878 392.808 262.427Z" fill="white"/>
<path d="M290.843 240.349C292.568 240.349 293.967 241.748 293.967 243.473V249.721C293.967 251.446 292.568 252.844 290.843 252.844H284.595C282.87 252.844 281.471 251.446 281.471 249.721V243.473C281.471 241.748 282.87 240.349 284.595 240.349H290.843Z" fill="white"/>
<path d="M312.71 240.349C314.435 240.349 315.834 241.748 315.834 243.473V249.721C315.834 251.446 314.435 252.844 312.71 252.844H306.462C304.737 252.844 303.339 251.446 303.339 249.721V243.473C303.339 241.748 304.737 240.349 306.462 240.349H312.71Z" fill="white"/>
<path d="M334.577 240.349C336.302 240.349 337.701 241.748 337.701 243.473V249.721C337.701 251.446 336.302 252.844 334.577 252.844H328.329C326.604 252.844 325.206 251.446 325.206 249.721V243.473C325.206 241.748 326.604 240.349 328.329 240.349H334.577Z" fill="white"/>
<path d="M356.444 240.349C358.17 240.349 359.568 241.748 359.568 243.473V249.721C359.568 251.446 358.17 252.844 356.444 252.844H350.197C348.471 252.844 347.073 251.446 347.073 249.721V243.473C347.073 241.748 348.471 240.349 350.197 240.349H356.444Z" fill="white"/>
<path d="M378.311 240.349C380.037 240.349 381.435 241.748 381.435 243.473V249.721C381.435 251.446 380.037 252.844 378.311 252.844H372.064C370.338 252.844 368.94 251.446 368.94 249.721V243.473C368.94 241.748 370.338 240.349 372.064 240.349H378.311Z" fill="white"/>
<path d="M396.696 240.349C396.277 244.637 395.683 248.801 394.933 252.844H393.931C392.206 252.844 390.807 251.446 390.807 249.721V243.473C390.807 241.748 392.206 240.349 393.931 240.349H396.696Z" fill="white"/>
<path d="M268.976 240.349C270.701 240.349 272.1 241.748 272.1 243.473V249.721C272.1 251.446 270.701 252.844 268.976 252.844H264.35V240.349H268.976Z" fill="white"/>
<path d="M290.843 218.482C292.568 218.482 293.967 219.88 293.967 221.606V227.853C293.967 229.579 292.568 230.977 290.843 230.977H284.595C282.87 230.977 281.471 229.579 281.471 227.853V221.606C281.471 219.88 282.87 218.482 284.595 218.482H290.843Z" fill="white"/>
<path d="M312.71 218.482C314.435 218.482 315.834 219.88 315.834 221.606V227.853C315.834 229.579 314.435 230.977 312.71 230.977H306.462C304.737 230.977 303.339 229.579 303.339 227.853V221.606C303.339 219.88 304.737 218.482 306.462 218.482H312.71Z" fill="white"/>
<path d="M334.577 218.482C336.302 218.482 337.701 219.88 337.701 221.606V227.853C337.701 229.579 336.302 230.977 334.577 230.977H328.329C326.604 230.977 325.206 229.579 325.206 227.853V221.606C325.206 219.88 326.604 218.482 328.329 218.482H334.577Z" fill="white"/>
<path d="M356.444 218.482C358.17 218.482 359.568 219.88 359.568 221.606V227.853C359.568 229.579 358.17 230.977 356.444 230.977H350.197C348.471 230.977 347.073 229.579 347.073 227.853V221.606C347.073 219.88 348.471 218.482 350.197 218.482H356.444Z" fill="white"/>
<path d="M378.311 218.482C380.037 218.482 381.435 219.88 381.435 221.606V227.853C381.435 229.579 380.037 230.977 378.311 230.977H372.064C370.338 230.977 368.94 229.579 368.94 227.853V221.606C368.94 219.88 370.338 218.482 372.064 218.482H378.311Z" fill="white"/>
<path d="M397.323 218.482C397.403 220.559 397.444 222.662 397.444 224.794L397.427 227.123C397.409 228.418 397.376 229.703 397.328 230.977H393.931C392.206 230.977 390.807 229.579 390.807 227.853V221.606C390.807 219.88 392.206 218.482 393.931 218.482H397.323Z" fill="white"/>
<path d="M268.976 218.482C270.701 218.482 272.1 219.88 272.1 221.606V227.853C272.1 229.579 270.701 230.977 268.976 230.977H264.35V218.482H268.976Z" fill="white"/>
<path d="M290.843 196.615C292.568 196.615 293.967 198.013 293.967 199.739V205.986C293.967 207.712 292.568 209.11 290.843 209.11H284.595C282.87 209.11 281.471 207.712 281.471 205.986V199.739C281.471 198.013 282.87 196.615 284.595 196.615H290.843Z" fill="white"/>
<path d="M312.71 196.615C314.435 196.615 315.834 198.013 315.834 199.739V205.986C315.834 207.712 314.435 209.11 312.71 209.11H306.462C304.737 209.11 303.339 207.712 303.339 205.986V199.739C303.339 198.013 304.737 196.615 306.462 196.615H312.71Z" fill="white"/>
<path d="M334.577 196.615C336.302 196.615 337.701 198.013 337.701 199.739V205.986C337.701 207.712 336.302 209.11 334.577 209.11H328.329C326.604 209.11 325.206 207.712 325.206 205.986V199.739C325.206 198.013 326.604 196.615 328.329 196.615H334.577Z" fill="white"/>
<path d="M356.444 196.615C358.17 196.615 359.568 198.013 359.568 199.739V205.986C359.568 207.712 358.17 209.11 356.444 209.11H350.197C348.471 209.11 347.073 207.712 347.073 205.986V199.739C347.073 198.013 348.471 196.615 350.197 196.615H356.444Z" fill="white"/>
<path d="M378.311 196.615C380.037 196.615 381.435 198.013 381.435 199.739V205.986C381.435 207.712 380.037 209.11 378.311 209.11H372.064C370.338 209.11 368.94 207.712 368.94 205.986V199.739C368.94 198.013 370.338 196.615 372.064 196.615H378.311Z" fill="white"/>
<path d="M394.912 196.615C395.666 200.658 396.262 204.822 396.686 209.11H393.931C392.206 209.11 390.807 207.712 390.807 205.986V199.739C390.807 198.013 392.206 196.615 393.931 196.615H394.912Z" fill="white"/>
<path d="M268.976 196.615C270.701 196.615 272.1 198.013 272.1 199.739V205.986C272.1 207.712 270.701 209.11 268.976 209.11H264.35V196.615H268.976Z" fill="white"/>
<path d="M290.843 174.748C292.568 174.748 293.967 176.146 293.967 177.872V184.119C293.967 185.845 292.568 187.243 290.843 187.243H284.595C282.87 187.243 281.471 185.845 281.471 184.119V177.872C281.471 176.146 282.87 174.748 284.595 174.748H290.843Z" fill="white"/>
<path d="M312.71 174.748C314.435 174.748 315.834 176.146 315.834 177.872V184.119C315.834 185.845 314.435 187.243 312.71 187.243H306.462C304.737 187.243 303.339 185.845 303.339 184.119V177.872C303.339 176.146 304.737 174.748 306.462 174.748H312.71Z" fill="white"/>
<path d="M334.577 174.748C336.302 174.748 337.701 176.146 337.701 177.872V184.119C337.701 185.845 336.302 187.243 334.577 187.243H328.329C326.604 187.243 325.206 185.845 325.206 184.119V177.872C325.206 176.146 326.604 174.748 328.329 174.748H334.577Z" fill="white"/>
<path d="M356.444 174.748C358.17 174.748 359.568 176.146 359.568 177.872V184.119C359.568 185.845 358.17 187.243 356.444 187.243H350.197C348.471 187.243 347.073 185.845 347.073 184.119V177.872C347.073 176.146 348.471 174.748 350.197 174.748H356.444Z" fill="white"/>
<path d="M378.311 174.748C380.037 174.748 381.435 176.146 381.435 177.872V184.119C381.435 185.845 380.037 187.243 378.311 187.243H372.064C370.338 187.243 368.94 185.845 368.94 184.119V177.872C368.94 176.146 370.338 174.748 372.064 174.748H378.311Z" fill="white"/>
<path d="M268.976 174.748C270.701 174.748 272.1 176.146 272.1 177.872V184.119C272.1 185.845 270.701 187.243 268.976 187.243H264.35V174.748H268.976Z" fill="white"/>
<path d="M390.807 180.208C391.514 182.436 392.17 184.706 392.773 187.019C391.621 186.559 390.807 185.435 390.807 184.119V180.208Z" fill="white"/>
<path d="M290.843 152.881C292.568 152.881 293.967 154.279 293.967 156.004V162.252C293.967 163.977 292.568 165.376 290.843 165.376H284.595C282.87 165.376 281.471 163.977 281.471 162.252V156.004C281.471 154.279 282.87 152.881 284.595 152.881H290.843Z" fill="white"/>
<path d="M312.71 152.881C314.435 152.881 315.834 154.279 315.834 156.004V162.252C315.834 163.977 314.435 165.376 312.71 165.376H306.462C304.737 165.376 303.339 163.977 303.339 162.252V156.004C303.339 154.279 304.737 152.881 306.462 152.881H312.71Z" fill="white"/>
<path d="M334.577 152.881C336.302 152.881 337.701 154.279 337.701 156.004V162.252C337.701 163.977 336.302 165.376 334.577 165.376H328.329C326.604 165.376 325.206 163.977 325.206 162.252V156.004C325.206 154.279 326.604 152.881 328.329 152.881H334.577Z" fill="white"/>
<path d="M356.444 152.881C358.17 152.881 359.568 154.279 359.568 156.004V162.252C359.568 163.977 358.17 165.376 356.444 165.376H350.197C348.471 165.376 347.073 163.977 347.073 162.252V156.004C347.073 154.279 348.471 152.881 350.197 152.881H356.444Z" fill="white"/>
<path d="M378.56 152.893C379.551 154.561 380.508 156.261 381.435 157.993V162.252C381.435 163.977 380.037 165.376 378.311 165.376H372.064C370.338 165.376 368.94 163.977 368.94 162.252V156.004C368.94 154.279 370.338 152.881 372.064 152.881H378.311C378.395 152.881 378.478 152.886 378.56 152.893Z" fill="white"/>
<path d="M268.976 152.881C270.701 152.881 272.1 154.279 272.1 156.004V162.252C272.1 163.977 270.701 165.376 268.976 165.376H264.35V152.881H268.976Z" fill="white"/>
<path d="M290.843 131.013C292.568 131.013 293.967 132.412 293.967 134.137V140.385C293.967 142.11 292.568 143.509 290.843 143.509H284.595C282.87 143.509 281.471 142.11 281.471 140.385V134.137C281.471 132.412 282.87 131.013 284.595 131.013H290.843Z" fill="white"/>
<path d="M312.71 131.013C314.435 131.013 315.834 132.412 315.834 134.137V140.385C315.834 142.11 314.435 143.509 312.71 143.509H306.462C304.737 143.509 303.339 142.11 303.339 140.385V134.137C303.339 132.412 304.737 131.013 306.462 131.013H312.71Z" fill="white"/>
<path d="M334.577 131.013C336.302 131.013 337.701 132.412 337.701 134.137V140.385C337.701 142.11 336.302 143.509 334.577 143.509H328.329C326.604 143.509 325.206 142.11 325.206 140.385V134.137C325.206 132.412 326.604 131.013 328.329 131.013H334.577Z" fill="white"/>
<path d="M356.444 131.013C358.17 131.013 359.568 132.412 359.568 134.137V140.385C359.568 142.11 358.17 143.509 356.444 143.509H350.197C348.471 143.509 347.073 142.11 347.073 140.385V134.137C347.073 132.412 348.471 131.013 350.197 131.013H356.444Z" fill="white"/>
<path d="M368.94 138.826C370.133 140.354 371.3 141.915 372.437 143.509H372.064C370.338 143.509 368.94 142.11 368.94 140.385V138.826Z" fill="white"/>
<path d="M268.976 131.013C270.701 131.013 272.1 132.412 272.1 134.137V140.385C272.1 142.11 270.701 143.509 268.976 143.509H264.35V131.013H268.976Z" fill="white"/>
<path d="M290.843 109.146C292.568 109.146 293.967 110.545 293.967 112.27V118.518C293.967 120.243 292.568 121.642 290.843 121.642H284.595C282.87 121.642 281.471 120.243 281.471 118.518V112.27C281.471 110.545 282.87 109.146 284.595 109.146H290.843Z" fill="white"/>
<path d="M312.71 109.146C314.435 109.146 315.834 110.545 315.834 112.27V118.518C315.834 120.243 314.435 121.642 312.71 121.642H306.462C304.737 121.642 303.339 120.243 303.339 118.518V112.27C303.339 110.545 304.737 109.146 306.462 109.146H312.71Z" fill="white"/>
<path d="M334.577 109.146C336.302 109.146 337.701 110.545 337.701 112.27V118.518C337.701 120.243 336.302 121.642 334.577 121.642H328.329C326.604 121.642 325.206 120.243 325.206 118.518V112.27C325.206 110.545 326.604 109.146 328.329 109.146H334.577Z" fill="white"/>
<path d="M347.073 116.366C349.109 118.062 351.116 119.82 353.087 121.642H350.197C348.471 121.642 347.073 120.243 347.073 118.518V116.366Z" fill="white"/>
<path d="M268.976 109.146C270.701 109.146 272.1 110.545 272.1 112.27V118.518C272.1 120.243 270.701 121.642 268.976 121.642H264.35V109.146H268.976Z" fill="white"/>
<path d="M290.843 87.2793C292.568 87.2793 293.967 88.6779 293.967 90.4032V96.6509C293.967 98.3762 292.568 99.7748 290.843 99.7748H284.595C282.87 99.7748 281.471 98.3762 281.471 96.6509V90.4032C281.471 88.6779 282.87 87.2793 284.595 87.2793H290.843Z" fill="white"/>
<path d="M303.387 89.8678C307.495 91.6304 311.659 93.5906 315.834 95.754V96.6509C315.834 98.3762 314.435 99.7748 312.71 99.7748H306.462C304.737 99.7748 303.339 98.3762 303.339 96.6509V90.4032C303.339 90.2204 303.357 90.0419 303.387 89.8678Z" fill="white"/>
<path d="M268.976 87.2793C270.701 87.2793 272.1 88.6779 272.1 90.4032V96.6509C272.1 98.3762 270.701 99.7748 268.976 99.7748H264.35V96.5121C264.35 93.0024 265.502 89.8028 267.408 87.2793H268.976Z" fill="white"/>
<defs>
<linearGradient id="paint0_linear_3552_287" x1="264.35" y1="78.1152" x2="418.024" y2="324.979" gradientUnits="userSpaceOnUse">
<stop stop-color="#FF20D6"/>
<stop offset="0.399038" stop-color="#FFE500"/>
<stop offset="0.600962" stop-color="#FFE500"/>
<stop offset="1" stop-color="#10D7FF"/>
</linearGradient>
</defs>
</svg>
